<svg width="44" height="44" viewBox="0 0 44 44" fill="none" xmlns="http://www.w3.org/2000/svg">
<circle cx="22" cy="22" r="22" fill="#412F80"/>
<path d="M28.04 23.55C27.62 23.96 27.38 24.55 27.44 25.18C27.53 26.26 28.52 27.05 29.6 27.05H31.5V28.24C31.5 30.31 29.81 32 27.74 32H16.26C14.19 32 12.5 30.31 12.5 28.24V21.51C12.5 19.44 14.19 17.75 16.26 17.75H27.74C29.81 17.75 31.5 19.44 31.5 21.51V22.95H29.48C28.92 22.95 28.41 23.17 28.04 23.55Z" stroke="white" stroke-width="1.5" stroke-linecap="round" stroke-linejoin="round"/>
<path d="M12.5 22.4098V17.8399C12.5 16.6499 13.23 15.5898 14.34 15.1698L22.28 12.1698C23.52 11.6998 24.85 12.6198 24.85 13.9498V17.7498" stroke="white" stroke-width="1.5" stroke-linecap="round" stroke-linejoin="round"/>
<path d="M32.5588 23.9702V26.0302C32.5588 26.5802 32.1188 27.0302 31.5588 27.0502H29.5988C28.5188 27.0502 27.5288 26.2602 27.4388 25.1802C27.3788 24.5502 27.6188 23.9602 28.0388 23.5502C28.4088 23.1702 28.9188 22.9502 29.4788 22.9502H31.5588C32.1188 22.9702 32.5588 23.4202 32.5588 23.9702Z" stroke="white" stroke-width="1.5" stroke-linecap="round" stroke-linejoin="round"/>
<path d="M17 22H24" stroke="white" stroke-width="1.5" stroke-linecap="round" stroke-linejoin="round"/>
</svg>
