<svg width="327" height="60" viewBox="0 0 327 60" fill="none" xmlns="http://www.w3.org/2000/svg">
<rect width="327" height="60" fill="#25408F"/>
<g clip-path="url(#clip0_380_519)">
<mask id="mask0_380_519" style="mask-type:luminance" maskUnits="userSpaceOnUse" x="9" y="2" width="309" height="66">
<path d="M318 2H9V68H318V2Z" fill="white"/>
</mask>
<g mask="url(#mask0_380_519)">
<path d="M19.6462 37.4012C17.326 35.343 16.6436 32.5987 16.6436 30.2661C16.6436 28.6195 17.1895 25.738 19.5097 23.5426C21.284 21.896 23.6042 20.9355 27.1528 20.9355C28.6542 20.9355 29.6095 21.0728 30.7014 21.21C31.6568 21.3472 32.3392 21.4844 33.1581 21.6216C33.4311 21.6216 33.5676 21.7588 33.5676 21.896C33.5676 22.0333 33.4311 22.4449 33.4311 23.2682C33.4311 24.0915 33.4311 25.4636 33.2946 25.8753C33.2946 26.2869 33.1581 26.4241 33.0216 26.4241C32.8852 26.4241 32.7487 26.2869 32.7487 25.8753C32.7487 25.1892 32.4757 24.2287 31.7933 23.6798C30.9744 22.8565 29.0636 22.1705 26.8799 22.1705C24.8326 22.1705 23.3313 22.7193 22.3759 23.6798C20.6016 25.3264 20.1921 27.659 20.1921 29.9917C20.1921 35.7547 24.5596 38.6362 27.8353 38.6362C30.019 38.6362 31.2474 38.3617 32.2027 37.264C32.6122 36.8524 32.8852 36.0291 33.0216 35.6175C33.1581 35.2058 33.1581 35.0686 33.2946 35.0686C33.4311 35.0686 33.5676 35.2058 33.5676 35.4802C33.5676 35.7547 33.2946 37.9501 33.0216 38.7734C32.8852 39.185 32.7487 39.3222 32.3392 39.4595C31.3838 39.8711 29.4731 40.0083 27.9717 40.0083C24.6961 40.0083 21.83 39.3222 19.6462 37.4012Z" fill="white"/>
</g>
<mask id="mask1_380_519" style="mask-type:luminance" maskUnits="userSpaceOnUse" x="9" y="2" width="309" height="66">
<path d="M318 2H9V68H318V2Z" fill="white"/>
</mask>
<g mask="url(#mask1_380_519)">
<path d="M42.1656 33.422C42.0291 33.422 42.0291 33.422 41.8926 33.5593L40.5278 36.8524C40.2548 37.4013 40.1184 38.0873 40.1184 38.3617C40.1184 38.7734 40.3913 39.0478 41.0737 39.0478H41.4832C41.7562 39.0478 41.8926 39.0478 41.8926 39.185C41.8926 39.3222 41.7562 39.4595 41.4832 39.4595C40.6643 39.4595 39.7089 39.3223 38.89 39.3223C38.617 39.3223 37.2522 39.4595 36.0238 39.4595C35.7509 39.4595 35.6144 39.4595 35.6144 39.185C35.6144 39.0478 35.7509 39.0478 35.8873 39.0478C36.1603 39.0478 36.4333 39.0478 36.5698 39.0478C37.6616 38.9106 38.2076 38.0873 38.617 36.8524L44.7588 21.7588C45.0318 21.0728 45.1683 20.7983 45.4412 20.7983C45.7142 20.7983 45.8507 21.0728 45.9872 21.6216C46.5331 22.9938 50.4911 32.736 51.9925 36.4408C52.9479 38.6362 53.6303 38.9106 54.1762 39.0478C54.5857 39.185 54.8586 39.185 55.1316 39.185C55.2681 39.185 55.4046 39.185 55.4046 39.3223C55.4046 39.4595 55.1316 39.5967 54.3127 39.5967C53.4938 39.5967 51.7195 39.5967 49.6722 39.5967C49.2628 39.5967 48.9898 39.5967 48.9898 39.4595C48.9898 39.3222 49.1263 39.3222 49.2628 39.185C49.3993 39.185 49.5358 38.9106 49.5358 38.6362L47.625 33.5593C47.625 33.422 47.4885 33.422 47.352 33.422H42.1656ZM47.2155 32.1871C47.352 32.1871 47.352 32.0499 47.352 32.0499L45.1683 26.0125C45.1683 25.8753 45.1683 25.738 45.0318 25.738C44.8953 25.738 44.8953 25.8753 44.8953 26.0125L42.7116 31.9127C42.7116 32.0499 42.7116 32.0499 42.848 32.0499H47.2155V32.1871Z" fill="white"/>
</g>
<mask id="mask2_380_519" style="mask-type:luminance" maskUnits="userSpaceOnUse" x="9" y="2" width="309" height="66">
<path d="M318 2H9V68H318V2Z" fill="white"/>
</mask>
<g mask="url(#mask2_380_519)">
<path d="M58.5442 39.3222C58.1348 39.185 58.1348 39.0478 58.1348 38.499C58.1348 37.1268 58.2712 35.7547 58.2712 35.343C58.2712 34.9314 58.4077 34.657 58.5442 34.657C58.8172 34.657 58.8172 34.9314 58.8172 35.0686C58.8172 35.343 58.9537 35.8919 59.0902 36.3035C59.6361 38.0873 61.0009 38.7734 62.5023 38.7734C64.686 38.7734 65.7779 37.264 65.7779 36.0291C65.7779 34.7942 65.3684 33.6965 63.4576 32.1871L62.3658 31.3638C59.6361 29.3056 58.8172 27.5218 58.8172 25.6008C58.8172 22.8565 61.0009 20.9355 64.413 20.9355C66.0508 20.9355 67.0062 21.21 67.6887 21.3472C67.9616 21.3472 67.9616 21.4844 67.9616 21.6216C67.9616 21.896 67.8251 22.5821 67.8251 24.5031C67.8251 25.052 67.6887 25.1892 67.5522 25.1892C67.4157 25.1892 67.2792 25.052 67.2792 24.7775C67.2792 24.5031 67.1427 23.817 66.5968 23.131C66.1873 22.7193 65.5049 21.896 64.0036 21.896C62.2293 21.896 61.1374 22.9938 61.1374 24.3659C61.1374 25.4636 61.6834 26.2869 63.7306 27.9335L64.413 28.4823C67.2792 30.6777 68.3711 32.3243 68.3711 34.657C68.3711 36.0291 67.8251 37.8129 66.0508 38.9106C64.8225 39.7339 63.4576 39.8711 62.2293 39.8711C60.5915 40.0083 59.4996 39.8711 58.5442 39.3222Z" fill="white"/>
</g>
<mask id="mask3_380_519" style="mask-type:luminance" maskUnits="userSpaceOnUse" x="9" y="2" width="309" height="66">
<path d="M318 2H9V68H318V2Z" fill="white"/>
</mask>
<g mask="url(#mask3_380_519)">
<path d="M76.1502 37.4012C73.8299 35.343 73.1475 32.5987 73.1475 30.2661C73.1475 28.6195 73.6935 25.738 76.0137 23.5426C77.788 21.896 80.1082 20.9355 83.6568 20.9355C85.1581 20.9355 86.1135 21.0728 87.2054 21.21C88.1608 21.3472 88.8432 21.4844 89.6621 21.6216C89.9351 21.6216 90.0716 21.7588 90.0716 21.896C90.0716 22.0333 89.9351 22.4449 89.9351 23.2682C89.9351 24.0915 89.9351 25.4636 89.7986 25.8753C89.7986 26.2869 89.6621 26.4241 89.5256 26.4241C89.3891 26.4241 89.2526 26.2869 89.2526 25.8753C89.2526 25.1892 88.9797 24.2287 88.2973 23.6798C87.4784 22.8565 85.5676 22.1705 83.3838 22.1705C81.3366 22.1705 79.8352 22.7193 78.8799 23.6798C77.1056 25.3264 76.6961 27.659 76.6961 29.9917C76.6961 35.7547 81.0636 38.6362 84.3392 38.6362C86.523 38.6362 87.7513 38.3617 88.7067 37.264C89.1162 36.8524 89.3891 36.0291 89.5256 35.6175C89.6621 35.2058 89.6621 35.0686 89.7986 35.0686C89.9351 35.0686 90.0716 35.2058 90.0716 35.4802C90.0716 35.7547 89.7986 37.9501 89.5256 38.7734C89.3891 39.185 89.2526 39.3222 88.8432 39.4595C87.8878 39.8711 85.977 40.0083 84.4757 40.0083C81.2001 40.0083 78.3339 39.3222 76.1502 37.4012Z" fill="white"/>
</g>
<mask id="mask4_380_519" style="mask-type:luminance" maskUnits="userSpaceOnUse" x="9" y="2" width="309" height="66">
<path d="M318 2H9V68H318V2Z" fill="white"/>
</mask>
<g mask="url(#mask4_380_519)">
<path d="M98.6704 33.422C98.5339 33.422 98.5339 33.422 98.3974 33.5593L97.0326 36.8524C96.7596 37.4013 96.6231 38.0873 96.6231 38.3617C96.6231 38.7734 96.8961 39.0478 97.5785 39.0478H97.988C98.2609 39.0478 98.3974 39.0478 98.3974 39.185C98.3974 39.3222 98.2609 39.4595 97.988 39.4595C97.169 39.4595 96.2137 39.3223 95.3948 39.3223C95.1218 39.3223 93.7569 39.4595 92.5286 39.4595C92.2556 39.4595 92.1191 39.4595 92.1191 39.185C92.1191 39.0478 92.2556 39.0478 92.3921 39.0478C92.6651 39.0478 92.938 39.0478 93.0745 39.0478C94.1664 38.9106 94.7123 38.0873 95.1218 36.8524L101.264 21.7588C101.537 21.0728 101.673 20.7983 101.946 20.7983C102.219 20.7983 102.355 21.0728 102.492 21.6216C103.038 22.9938 106.996 32.736 108.497 36.4408C109.453 38.6362 110.135 38.9106 110.681 39.0478C111.09 39.185 111.363 39.185 111.636 39.185C111.773 39.185 111.909 39.185 111.909 39.3223C111.909 39.4595 111.636 39.5967 110.817 39.5967C109.999 39.5967 108.224 39.5967 106.177 39.5967C105.768 39.5967 105.495 39.5967 105.495 39.4595C105.495 39.3222 105.631 39.3222 105.768 39.185C105.904 39.185 106.041 38.9106 106.041 38.6362L104.13 33.5593C104.13 33.422 103.993 33.422 103.857 33.422H98.6704ZM103.72 32.1871C103.857 32.1871 103.857 32.0499 103.857 32.0499L101.673 26.0125C101.673 25.8753 101.673 25.738 101.537 25.738C101.4 25.738 101.4 25.8753 101.4 26.0125L99.0798 32.0499C99.0798 32.1871 99.0798 32.1871 99.2163 32.1871H103.72Z" fill="white"/>
</g>
<mask id="mask5_380_519" style="mask-type:luminance" maskUnits="userSpaceOnUse" x="9" y="2" width="309" height="66">
<path d="M318 2H9V68H318V2Z" fill="white"/>
</mask>
<g mask="url(#mask5_380_519)">
<path d="M116.549 28.3451C116.549 24.6403 116.549 23.9543 116.549 23.131C116.549 22.3077 116.277 21.896 115.458 21.7588C115.321 21.7588 114.912 21.6216 114.502 21.6216C114.229 21.6216 114.093 21.6216 114.093 21.3472C114.093 21.0728 114.229 21.0728 114.639 21.0728C115.867 21.0728 117.505 21.21 118.187 21.21C118.87 21.21 120.508 21.0728 121.872 21.0728C124.875 21.0728 128.97 21.0728 131.563 23.817C132.791 25.052 133.883 27.1102 133.883 29.9917C133.883 33.0104 132.655 35.343 131.29 36.7152C130.198 37.8129 127.605 39.5967 123.237 39.5967C122.418 39.5967 121.326 39.4594 120.508 39.4594C119.552 39.3222 118.733 39.3222 118.187 39.3222C117.914 39.3222 117.368 39.3222 116.822 39.3222C116.277 39.3222 115.594 39.3222 115.185 39.3222C114.912 39.3222 114.639 39.185 114.639 39.0478C114.639 38.9106 114.775 38.9106 115.048 38.9106C115.458 38.9106 115.731 38.9106 115.867 38.7734C116.413 38.6362 116.413 38.0873 116.549 37.4012C116.686 36.4407 116.686 34.5197 116.686 32.1871V28.3451H116.549ZM119.552 30.9522C119.552 33.5592 119.552 35.343 119.552 35.8919C119.552 36.4407 119.689 37.5385 119.825 37.6757C120.098 38.0873 121.053 38.6362 122.964 38.6362C125.421 38.6362 127.059 38.0873 128.56 36.8524C130.061 35.4802 130.607 33.2848 130.607 30.815C130.607 27.659 129.379 25.738 128.287 24.7775C126.103 22.5821 123.237 22.3077 121.463 22.3077C120.917 22.3077 120.098 22.4449 119.825 22.4449C119.552 22.5821 119.552 22.7193 119.552 22.9938C119.552 23.817 119.552 25.8752 119.552 27.7962V30.9522Z" fill="white"/>
</g>
<mask id="mask6_380_519" style="mask-type:luminance" maskUnits="userSpaceOnUse" x="9" y="2" width="309" height="66">
<path d="M318 2H9V68H318V2Z" fill="white"/>
</mask>
<g mask="url(#mask6_380_519)">
<path d="M140.843 28.3451C140.843 24.6403 140.843 23.9542 140.843 23.131C140.843 22.3077 140.57 21.896 140.024 21.7588C139.751 21.6216 139.478 21.6216 139.205 21.6216C138.932 21.6216 138.796 21.6216 138.796 21.3472C138.796 21.21 138.932 21.21 139.342 21.21C140.297 21.21 141.799 21.3472 142.481 21.3472C143.027 21.3472 144.528 21.21 145.484 21.21C145.757 21.21 146.03 21.21 146.03 21.3472C146.03 21.4844 145.893 21.6216 145.62 21.6216C145.347 21.6216 145.211 21.6216 144.938 21.7588C144.255 21.896 144.119 22.3077 143.982 23.131C143.982 23.9542 143.982 24.6403 143.982 28.3451V32.5987C143.982 34.9314 143.982 36.8524 144.119 37.9501C144.255 38.6362 144.392 39.0478 145.074 39.185C145.347 39.185 145.893 39.3222 146.303 39.3222C146.575 39.3222 146.712 39.4594 146.712 39.4594C146.712 39.5967 146.575 39.7339 146.303 39.7339C144.665 39.7339 143.163 39.5967 142.481 39.5967C141.935 39.5967 140.434 39.7339 139.478 39.7339C139.205 39.7339 138.932 39.5967 138.932 39.4594C138.932 39.3222 139.069 39.3222 139.342 39.3222C139.751 39.3222 140.024 39.3222 140.161 39.185C140.707 39.0478 140.843 38.6362 140.843 37.9501C140.98 36.9896 140.98 35.0686 140.98 32.5987V28.3451H140.843Z" fill="white"/>
</g>
<mask id="mask7_380_519" style="mask-type:luminance" maskUnits="userSpaceOnUse" x="9" y="2" width="309" height="66">
<path d="M318 2H9V68H318V2Z" fill="white"/>
</mask>
<g mask="url(#mask7_380_519)">
<path d="M154.629 33.422C154.492 33.422 154.492 33.422 154.356 33.5593L152.991 36.8524C152.718 37.4013 152.581 38.0873 152.581 38.3617C152.581 38.7734 152.854 39.0478 153.537 39.0478H153.946C154.219 39.0478 154.356 39.0478 154.356 39.185C154.356 39.3222 154.219 39.4595 153.946 39.4595C153.127 39.4595 152.172 39.3223 151.353 39.3223C151.08 39.3223 149.715 39.4595 148.487 39.4595C148.214 39.4595 148.077 39.4595 148.077 39.185C148.077 39.0478 148.214 39.0478 148.35 39.0478C148.623 39.0478 148.896 39.0478 149.033 39.0478C150.125 38.9106 150.67 38.0873 151.08 36.8524L157.222 21.7588C157.495 21.0728 157.631 20.7983 157.904 20.7983C158.177 20.7983 158.314 21.0728 158.45 21.6216C158.996 22.9938 162.954 32.736 164.455 36.4408C165.411 38.6362 166.093 38.9106 166.639 39.0478C167.049 39.185 167.322 39.185 167.594 39.185C167.731 39.185 167.867 39.185 167.867 39.3223C167.867 39.4595 167.594 39.5967 166.776 39.5967C165.957 39.5967 164.182 39.5967 162.272 39.5967C161.862 39.5967 161.589 39.5967 161.589 39.4595C161.589 39.3222 161.726 39.3222 161.862 39.185C161.999 39.185 162.135 38.9106 162.135 38.6362L160.224 33.5593C160.224 33.422 160.088 33.422 159.951 33.422H154.629ZM159.678 32.1871C159.815 32.1871 159.815 32.0499 159.815 32.0499L157.631 26.0125C157.631 25.8753 157.631 25.738 157.495 25.738C157.358 25.738 157.358 25.8753 157.358 26.0125L155.174 31.9127C155.174 32.0499 155.174 32.0499 155.311 32.0499H159.678V32.1871Z" fill="white"/>
</g>
<mask id="mask8_380_519" style="mask-type:luminance" maskUnits="userSpaceOnUse" x="9" y="2" width="309" height="66">
<path d="M318 2H9V68H318V2Z" fill="white"/>
</mask>
<g mask="url(#mask8_380_519)">
<path d="M182.062 37.4012C179.742 35.343 179.06 32.5987 179.06 30.2661C179.06 28.6195 179.606 25.738 181.926 23.5426C183.7 21.896 186.02 20.9355 189.569 20.9355C191.07 20.9355 192.026 21.0728 193.117 21.21C194.073 21.3472 194.755 21.4844 195.574 21.6216C195.847 21.6216 195.984 21.7588 195.984 21.896C195.984 22.0333 195.847 22.4449 195.847 23.2682C195.847 24.0915 195.847 25.4636 195.711 25.8753C195.711 26.2869 195.574 26.4241 195.438 26.4241C195.301 26.4241 195.165 26.2869 195.165 25.8753C195.165 25.1892 194.892 24.2287 194.209 23.6798C193.39 22.8565 191.48 22.1705 189.296 22.1705C187.249 22.1705 185.747 22.7193 184.792 23.6798C183.018 25.3264 182.608 27.659 182.608 29.9917C182.608 35.7547 186.976 38.6362 190.251 38.6362C192.435 38.6362 193.663 38.3617 194.619 37.264C195.028 36.8524 195.301 36.0291 195.438 35.6175C195.574 35.2058 195.574 35.0686 195.711 35.0686C195.847 35.0686 195.984 35.2058 195.984 35.4802C195.984 35.7547 195.711 37.9501 195.438 38.7734C195.301 39.185 195.165 39.3222 194.755 39.4595C193.8 39.8711 191.889 40.0083 190.388 40.0083C186.976 40.0083 184.246 39.3222 182.062 37.4012Z" fill="white"/>
</g>
<mask id="mask9_380_519" style="mask-type:luminance" maskUnits="userSpaceOnUse" x="9" y="2" width="309" height="66">
<path d="M318 2H9V68H318V2Z" fill="white"/>
</mask>
<g mask="url(#mask9_380_519)">
<path d="M200.351 30.4033C200.351 26.2869 203.08 20.9355 210.314 20.9355C216.319 20.9355 220.141 24.5031 220.141 29.9917C220.141 35.6175 216.319 40.0083 210.178 40.0083C203.08 40.0083 200.351 34.7942 200.351 30.4033ZM216.729 30.9522C216.729 25.4636 213.59 22.1705 209.632 22.1705C206.902 22.1705 203.626 23.6798 203.626 29.7173C203.626 34.7942 206.356 38.7734 210.996 38.7734C212.771 38.7734 216.729 37.9501 216.729 30.9522Z" fill="white"/>
</g>
<mask id="mask10_380_519" style="mask-type:luminance" maskUnits="userSpaceOnUse" x="9" y="2" width="309" height="66">
<path d="M318 2H9V68H318V2Z" fill="white"/>
</mask>
<g mask="url(#mask10_380_519)">
<path d="M229.968 32.5988C229.968 35.7547 229.968 37.4013 230.514 37.8129C230.924 38.2245 231.606 38.3618 233.38 38.3618C234.609 38.3618 235.564 38.3618 236.246 37.6757C236.519 37.4013 236.792 36.7152 236.929 36.1663C236.929 35.8919 237.065 35.7547 237.202 35.7547C237.338 35.7547 237.338 35.8919 237.338 36.1663C237.338 36.4408 237.202 38.2245 236.929 38.9106C236.792 39.4595 236.656 39.5967 235.428 39.5967C233.653 39.5967 232.425 39.5967 231.333 39.4595C230.241 39.4595 229.422 39.3223 228.33 39.3223C228.057 39.3223 227.511 39.3223 226.966 39.3223C226.42 39.3223 225.737 39.3223 225.328 39.3223C225.055 39.3223 224.782 39.185 224.782 39.0478C224.782 38.9106 224.918 38.9106 225.191 38.9106C225.601 38.9106 225.874 38.9106 226.01 38.7734C226.556 38.6362 226.556 38.0873 226.693 37.4013C226.829 36.4408 226.829 34.5198 226.829 32.1871V27.9335C226.829 24.2287 226.829 23.5426 226.829 22.7193C226.829 21.8961 226.556 21.4844 225.737 21.3472C225.601 21.3472 225.191 21.21 224.918 21.21C224.645 21.21 224.509 21.21 224.509 20.9356C224.509 20.7983 224.645 20.6611 225.055 20.6611C226.147 20.6611 227.648 20.7983 228.33 20.7983C228.876 20.7983 230.651 20.6611 231.606 20.6611C231.879 20.6611 232.152 20.6611 232.152 20.9356C232.152 21.0728 232.015 21.21 231.742 21.21C231.469 21.21 231.06 21.21 230.787 21.3472C230.105 21.4844 229.968 21.8961 229.832 22.7193C229.832 23.5426 229.832 24.2287 229.832 27.9335V32.5988H229.968Z" fill="white"/>
</g>
<mask id="mask11_380_519" style="mask-type:luminance" maskUnits="userSpaceOnUse" x="9" y="2" width="309" height="66">
<path d="M318 2H9V68H318V2Z" fill="white"/>
</mask>
<g mask="url(#mask11_380_519)">
<path d="M246.619 32.5988C246.619 35.7547 246.619 37.4013 247.164 37.8129C247.574 38.2245 248.256 38.3618 250.031 38.3618C251.259 38.3618 252.214 38.3618 252.897 37.6757C253.17 37.4013 253.443 36.7152 253.579 36.1663C253.579 35.8919 253.716 35.7547 253.852 35.7547C253.989 35.7547 253.989 35.8919 253.989 36.1663C253.989 36.4408 253.852 38.2245 253.579 38.9106C253.443 39.4595 253.306 39.5967 252.078 39.5967C250.304 39.5967 249.075 39.5967 247.983 39.4595C246.892 39.4595 246.073 39.3223 244.981 39.3223C244.708 39.3223 244.162 39.3223 243.616 39.3223C243.07 39.3223 242.388 39.3223 241.978 39.3223C241.705 39.3223 241.432 39.185 241.432 39.0478C241.432 38.9106 241.569 38.9106 241.842 38.9106C242.251 38.9106 242.524 38.9106 242.66 38.7734C243.206 38.6362 243.206 38.0873 243.343 37.4013C243.479 36.4408 243.479 34.5198 243.479 32.1871V27.9335C243.479 24.2287 243.479 23.5426 243.479 22.7193C243.479 21.8961 243.206 21.4844 242.388 21.3472C242.251 21.3472 241.842 21.21 241.569 21.21C241.296 21.21 241.159 21.21 241.159 20.9356C241.159 20.7983 241.296 20.6611 241.705 20.6611C242.797 20.6611 244.435 20.7983 244.981 20.7983C245.527 20.7983 247.301 20.6611 248.256 20.6611C248.529 20.6611 248.802 20.6611 248.802 20.9356C248.802 21.0728 248.666 21.21 248.393 21.21C248.12 21.21 247.71 21.21 247.437 21.3472C246.755 21.4844 246.619 21.8961 246.482 22.7193C246.482 23.5426 246.482 24.2287 246.482 27.9335V32.5988H246.619Z" fill="white"/>
</g>
<mask id="mask12_380_519" style="mask-type:luminance" maskUnits="userSpaceOnUse" x="9" y="2" width="309" height="66">
<path d="M318 2H9V68H318V2Z" fill="white"/>
</mask>
<g mask="url(#mask12_380_519)">
<path d="M259.994 28.3451C259.994 24.6403 259.994 23.9543 259.994 23.131C259.994 22.3077 259.721 21.8961 258.902 21.7588C258.765 21.7588 258.356 21.6216 257.947 21.6216C257.674 21.6216 257.537 21.6216 257.537 21.3472C257.537 21.21 257.674 21.0728 258.083 21.0728C258.765 21.0728 259.448 21.0728 259.994 21.0728C260.676 21.0728 261.222 21.0728 261.495 21.0728C262.314 21.0728 267.091 21.0728 267.5 21.0728C267.91 21.0728 268.319 20.9356 268.592 20.9356C268.729 20.9356 268.865 20.7983 269.002 20.7983C269.138 20.7983 269.138 20.9356 269.138 21.0728C269.138 21.21 269.002 21.4844 269.002 22.7193C269.002 22.9938 268.865 24.0915 268.865 24.3659C268.865 24.5031 268.729 24.6403 268.592 24.6403C268.456 24.6403 268.319 24.5031 268.319 24.3659C268.319 24.2287 268.319 23.8171 268.183 23.5426C268.046 23.131 267.773 22.8566 266.545 22.7193C266.136 22.7193 263.542 22.5821 263.133 22.5821C262.996 22.5821 262.996 22.7193 262.996 22.8566V29.0312C262.996 29.1684 262.996 29.3056 263.133 29.3056C263.679 29.3056 266.409 29.3056 266.955 29.3056C267.5 29.3056 267.91 29.1684 268.183 28.894C268.319 28.7568 268.456 28.6195 268.592 28.6195C268.729 28.6195 268.729 28.6195 268.729 28.7568C268.729 28.894 268.592 29.3056 268.592 30.5405C268.592 31.0894 268.456 32.0499 268.456 32.1871C268.456 32.3243 268.456 32.5988 268.183 32.5988C268.046 32.5988 267.91 32.4615 267.91 32.3243C267.91 32.0499 267.91 31.7755 267.773 31.501C267.637 30.9522 267.364 30.6778 266.409 30.5405C265.999 30.5405 263.542 30.4033 262.996 30.4033C262.86 30.4033 262.86 30.5405 262.86 30.6778V32.5988C262.86 33.422 262.86 35.6175 262.86 36.3035C262.86 37.9501 263.269 38.3617 265.726 38.3617C266.409 38.3617 267.364 38.3617 268.046 38.0873C268.729 37.8129 269.002 37.264 269.138 36.3035C269.138 36.0291 269.275 35.8919 269.411 35.8919C269.548 35.8919 269.548 36.0291 269.548 36.3035C269.548 36.8524 269.411 38.499 269.275 39.0478C269.138 39.7339 268.865 39.7339 267.91 39.7339C266.136 39.7339 264.771 39.7339 263.679 39.5967C262.587 39.5967 261.905 39.4595 261.222 39.4595C260.949 39.4595 260.403 39.4595 259.857 39.4595C259.311 39.4595 258.629 39.4595 258.22 39.4595C257.947 39.4595 257.674 39.3222 257.674 39.185C257.674 39.0478 257.81 39.0478 258.083 39.0478C258.492 39.0478 258.765 39.0478 258.902 38.9106C259.448 38.7734 259.448 38.2245 259.584 37.5385C259.721 36.578 259.721 34.657 259.721 32.3243V28.3451H259.994Z" fill="white"/>
</g>
<mask id="mask13_380_519" style="mask-type:luminance" maskUnits="userSpaceOnUse" x="9" y="2" width="309" height="66">
<path d="M318 2H9V68H318V2Z" fill="white"/>
</mask>
<g mask="url(#mask13_380_519)">
<path d="M291.931 38.0873C291.931 38.7734 291.931 38.7734 291.658 38.9106C290.02 39.7339 287.7 40.0083 285.789 40.0083C279.921 40.0083 274.598 37.1268 274.598 30.4033C274.598 26.5613 276.645 23.8171 278.829 22.4449C281.149 21.0728 283.333 20.7983 285.38 20.7983C287.018 20.7983 289.201 21.0728 289.611 21.21C290.157 21.3472 290.976 21.4844 291.522 21.4844C291.795 21.4844 291.795 21.6216 291.795 21.7588C291.795 22.0333 291.658 22.7193 291.658 25.738C291.658 26.1497 291.522 26.2869 291.385 26.2869C291.249 26.2869 291.112 26.1497 291.112 26.0125C290.976 25.4636 290.976 24.6403 290.293 23.9543C289.611 23.131 287.564 22.0333 284.834 22.0333C283.469 22.0333 281.695 22.1705 280.057 23.5426C278.692 24.6403 277.873 26.5613 277.873 29.4428C277.873 34.657 281.149 38.6362 286.335 38.6362C287.018 38.6362 287.837 38.6362 288.383 38.3617C288.792 38.2245 288.792 37.8129 288.792 37.4012V35.0686C288.792 33.8337 288.792 32.8732 288.792 32.1871C288.792 31.3638 288.519 30.9522 287.7 30.815C287.564 30.815 287.154 30.6778 286.745 30.6778C286.472 30.6778 286.335 30.6778 286.335 30.5405C286.335 30.4033 286.472 30.2661 286.881 30.2661C288.11 30.2661 289.611 30.4033 290.43 30.4033C291.112 30.4033 292.477 30.2661 293.296 30.2661C293.569 30.2661 293.842 30.2661 293.842 30.5405C293.842 30.6778 293.705 30.6778 293.569 30.6778C293.432 30.6778 293.159 30.6778 292.887 30.815C292.204 30.9522 291.931 31.3638 291.931 32.1871C291.931 32.8732 291.931 33.8337 291.931 35.0686V38.0873Z" fill="white"/>
</g>
<mask id="mask14_380_519" style="mask-type:luminance" maskUnits="userSpaceOnUse" x="9" y="2" width="309" height="66">
<path d="M318 2H9V68H318V2Z" fill="white"/>
</mask>
<g mask="url(#mask14_380_519)">
<path d="M300.53 28.3451C300.53 24.6403 300.53 23.9543 300.53 23.131C300.53 22.3077 300.257 21.8961 299.438 21.7588C299.302 21.7588 298.892 21.6216 298.483 21.6216C298.21 21.6216 298.073 21.6216 298.073 21.3472C298.073 21.21 298.21 21.0728 298.619 21.0728C299.302 21.0728 299.984 21.0728 300.53 21.0728C301.213 21.0728 301.758 21.0728 302.031 21.0728C302.85 21.0728 307.627 21.0728 308.037 21.0728C308.446 21.0728 308.856 20.9356 309.129 20.9356C309.265 20.9356 309.402 20.7983 309.538 20.7983C309.675 20.7983 309.675 20.9356 309.675 21.0728C309.675 21.21 309.538 21.4844 309.538 22.7193C309.538 22.9938 309.402 24.0915 309.402 24.3659C309.402 24.5031 309.265 24.6403 309.129 24.6403C308.992 24.6403 308.856 24.5031 308.856 24.3659C308.856 24.2287 308.856 23.8171 308.719 23.5426C308.583 23.131 308.31 22.8566 307.081 22.7193C306.672 22.7193 304.079 22.5821 303.669 22.5821C303.533 22.5821 303.533 22.7193 303.533 22.8566V29.0312C303.533 29.1684 303.533 29.3056 303.669 29.3056C304.215 29.3056 306.945 29.3056 307.491 29.3056C308.037 29.3056 308.446 29.1684 308.719 28.894C308.856 28.7568 308.992 28.6195 309.129 28.6195C309.265 28.6195 309.265 28.6195 309.265 28.7568C309.265 28.894 309.129 29.3056 309.129 30.5405C309.129 31.0894 308.992 32.0499 308.992 32.1871C308.992 32.3243 308.992 32.5988 308.719 32.5988C308.583 32.5988 308.446 32.4615 308.446 32.3243C308.446 32.0499 308.446 31.7755 308.31 31.501C308.173 30.9522 307.9 30.6778 306.945 30.5405C306.535 30.5405 304.079 30.4033 303.533 30.4033C303.396 30.4033 303.396 30.5405 303.396 30.6778V32.5988C303.396 33.422 303.396 35.6175 303.396 36.3035C303.396 37.9501 303.806 38.3617 306.262 38.3617C306.945 38.3617 307.9 38.3617 308.583 38.0873C309.265 37.8129 309.538 37.264 309.675 36.3035C309.675 36.0291 309.811 35.8919 309.947 35.8919C310.084 35.8919 310.084 36.0291 310.084 36.3035C310.084 36.8524 309.947 38.499 309.811 39.0478C309.675 39.7339 309.402 39.7339 308.446 39.7339C306.672 39.7339 305.307 39.7339 304.215 39.5967C303.123 39.5967 302.441 39.4595 301.758 39.4595C301.485 39.4595 300.94 39.4595 300.394 39.4595C299.848 39.4595 299.165 39.4595 298.756 39.4595C298.483 39.4595 298.21 39.3222 298.21 39.185C298.21 39.0478 298.346 39.0478 298.619 39.0478C299.029 39.0478 299.302 39.0478 299.438 38.9106C299.984 38.7734 299.984 38.2245 300.121 37.5385C300.257 36.578 300.257 34.657 300.257 32.3243V28.3451H300.53Z" fill="white"/>
</g>
<mask id="mask15_380_519" style="mask-type:luminance" maskUnits="userSpaceOnUse" x="9" y="2" width="309" height="66">
<path d="M318 2H9V68H318V2Z" fill="white"/>
</mask>
<g mask="url(#mask15_380_519)">
<path d="M318 2H9V46.5946H318V2Z" fill="#25408F"/>
</g>
<mask id="mask16_380_519" style="mask-type:luminance" maskUnits="userSpaceOnUse" x="9" y="2" width="309" height="66">
<path d="M318 2H9V68H318V2Z" fill="white"/>
</mask>
<g mask="url(#mask16_380_519)">
<path d="M19.6462 37.4012C17.326 35.343 16.6436 32.5987 16.6436 30.2661C16.6436 28.6195 17.1895 25.738 19.5097 23.5426C21.284 21.896 23.6042 20.9355 27.1528 20.9355C28.6542 20.9355 29.6095 21.0728 30.7014 21.21C31.6568 21.3472 32.3392 21.4844 33.1581 21.6216C33.4311 21.6216 33.5676 21.7588 33.5676 21.896C33.5676 22.0333 33.4311 22.4449 33.4311 23.2682C33.4311 24.0915 33.4311 25.4636 33.2946 25.8753C33.2946 26.2869 33.1581 26.4241 33.0216 26.4241C32.8852 26.4241 32.7487 26.2869 32.7487 25.8753C32.7487 25.1892 32.4757 24.2287 31.7933 23.6798C30.9744 22.8565 29.0636 22.1705 26.8799 22.1705C24.8326 22.1705 23.3313 22.7193 22.3759 23.6798C20.6016 25.3264 20.1921 27.659 20.1921 29.9917C20.1921 35.7547 24.5596 38.6362 27.8353 38.6362C30.019 38.6362 31.2474 38.3617 32.2027 37.264C32.6122 36.8524 32.8852 36.0291 33.0216 35.6175C33.1581 35.2058 33.1581 35.0686 33.2946 35.0686C33.4311 35.0686 33.5676 35.2058 33.5676 35.4802C33.5676 35.7547 33.2946 37.9501 33.0216 38.7734C32.8852 39.185 32.7487 39.3222 32.3392 39.4595C31.3838 39.8711 29.4731 40.0083 27.9717 40.0083C24.6961 40.0083 21.83 39.3222 19.6462 37.4012Z" fill="white"/>
</g>
<mask id="mask17_380_519" style="mask-type:luminance" maskUnits="userSpaceOnUse" x="9" y="2" width="309" height="66">
<path d="M318 2H9V68H318V2Z" fill="white"/>
</mask>
<g mask="url(#mask17_380_519)">
<path d="M42.3024 33.422C42.166 33.422 42.166 33.422 42.0295 33.5593L40.6646 36.8524C40.3917 37.4013 40.2552 38.0873 40.2552 38.3617C40.2552 38.7734 40.5282 39.0478 41.2106 39.0478H41.7565C42.0295 39.0478 42.166 39.0478 42.166 39.185C42.166 39.3222 42.0295 39.4595 41.7565 39.4595C40.9376 39.4595 39.9822 39.3223 39.1633 39.3223C38.8903 39.3223 37.5255 39.4595 36.2971 39.4595C36.0242 39.4595 35.8877 39.4595 35.8877 39.185C35.8877 39.0478 36.0242 39.0478 36.1607 39.0478C36.4336 39.0478 36.7066 39.0478 36.8431 39.0478C37.935 38.9106 38.4809 38.0873 38.8903 36.8524L45.0321 21.7588C45.3051 21.0728 45.4416 20.7983 45.7146 20.7983C45.9875 20.7983 46.124 21.0728 46.2605 21.6216C46.8064 22.9938 50.7645 32.736 52.2658 36.4408C53.2212 38.6362 53.9036 38.9106 54.4495 39.0478C54.859 39.185 55.132 39.185 55.4049 39.185C55.5414 39.185 55.6779 39.185 55.6779 39.3223C55.6779 39.4595 55.4049 39.5967 54.586 39.5967C53.7671 39.5967 51.9928 39.5967 49.9456 39.5967C49.5361 39.5967 49.2631 39.5967 49.2631 39.4595C49.2631 39.3222 49.3996 39.3222 49.5361 39.185C49.6726 39.185 49.8091 38.9106 49.8091 38.6362L47.8983 33.5593C47.8983 33.422 47.7618 33.422 47.6253 33.422H42.3024ZM47.2159 32.1871C47.3524 32.1871 47.3524 32.0499 47.3524 32.0499L45.1686 26.0125C45.1686 25.8753 45.1686 25.738 45.0321 25.738C44.8956 25.738 44.8956 25.8753 44.8956 26.0125L42.7119 31.9127C42.7119 32.0499 42.7119 32.0499 42.8484 32.0499H47.2159V32.1871Z" fill="white"/>
</g>
<mask id="mask18_380_519" style="mask-type:luminance" maskUnits="userSpaceOnUse" x="9" y="2" width="309" height="66">
<path d="M318 2H9V68H318V2Z" fill="white"/>
</mask>
<g mask="url(#mask18_380_519)">
<path d="M58.5442 39.3223C58.1348 39.185 58.1348 39.0478 58.1348 38.499C58.1348 37.1268 58.2712 35.7547 58.2712 35.343C58.2712 34.9314 58.4077 34.657 58.5442 34.657C58.8172 34.657 58.8172 34.9314 58.8172 35.0686C58.8172 35.343 58.9537 35.8919 59.0902 36.3035C59.6361 38.0873 61.0009 38.7734 62.5023 38.7734C64.686 38.7734 65.7779 37.264 65.7779 36.0291C65.7779 34.7942 65.3684 33.6965 63.4576 32.1871L62.2293 31.2266C59.4996 29.1684 58.6807 27.3846 58.6807 25.4636C58.6807 22.7193 60.8644 20.7983 64.2765 20.7983C65.9144 20.7983 66.8697 21.0728 67.5522 21.21C67.8251 21.21 67.8251 21.3472 67.8251 21.4844C67.8251 21.7588 67.6887 22.4449 67.6887 24.3659C67.6887 24.9148 67.5522 25.052 67.4157 25.052C67.2792 25.052 67.1427 24.9148 67.1427 24.6403C67.1427 24.3659 67.0062 23.6798 66.4603 22.9938C66.0508 22.5821 65.3684 21.7588 63.8671 21.7588C62.0928 21.7588 61.0009 22.8566 61.0009 24.2287C61.0009 25.3264 61.5469 26.1497 63.5941 27.7963L64.2765 28.3451C67.1427 30.5405 68.2346 32.1871 68.2346 34.5198C68.2346 35.8919 67.6887 37.6757 65.9144 38.7734C64.686 39.5967 63.3212 39.7339 62.0928 39.7339C60.728 40.0083 59.6361 39.8711 58.5442 39.3223Z" fill="white"/>
</g>
<mask id="mask19_380_519" style="mask-type:luminance" maskUnits="userSpaceOnUse" x="9" y="2" width="309" height="66">
<path d="M318 2H9V68H318V2Z" fill="white"/>
</mask>
<g mask="url(#mask19_380_519)">
<path d="M76.1502 37.4012C73.8299 35.343 73.1475 32.5987 73.1475 30.2661C73.1475 28.6195 73.6935 25.738 76.0137 23.5426C77.788 21.896 80.1082 20.9355 83.6568 20.9355C85.1581 20.9355 86.1135 21.0728 87.2054 21.21C88.1608 21.3472 88.8432 21.4844 89.6621 21.6216C89.9351 21.6216 90.0716 21.7588 90.0716 21.896C90.0716 22.0333 89.9351 22.4449 89.9351 23.2682C89.9351 24.0915 89.9351 25.4636 89.7986 25.8753C89.7986 26.2869 89.6621 26.4241 89.5256 26.4241C89.3891 26.4241 89.2526 26.2869 89.2526 25.8753C89.2526 25.1892 88.9797 24.2287 88.2973 23.6798C87.4784 22.8565 85.5676 22.1705 83.3838 22.1705C81.3366 22.1705 79.8352 22.7193 78.8799 23.6798C77.1056 25.3264 76.6961 27.659 76.6961 29.9917C76.6961 35.7547 81.0636 38.6362 84.3392 38.6362C86.523 38.6362 87.7513 38.3617 88.7067 37.264C89.1162 36.8524 89.3891 36.0291 89.5256 35.6175C89.6621 35.2058 89.6621 35.0686 89.7986 35.0686C89.9351 35.0686 90.0716 35.2058 90.0716 35.4802C90.0716 35.7547 89.7986 37.9501 89.5256 38.7734C89.3891 39.185 89.2526 39.3222 88.8432 39.4595C87.8878 39.8711 85.977 40.0083 84.4757 40.0083C81.2001 40.0083 78.4704 39.3222 76.1502 37.4012Z" fill="white"/>
</g>
<mask id="mask20_380_519" style="mask-type:luminance" maskUnits="userSpaceOnUse" x="9" y="2" width="309" height="66">
<path d="M318 2H9V68H318V2Z" fill="white"/>
</mask>
<g mask="url(#mask20_380_519)">
<path d="M98.8061 33.422C98.6696 33.422 98.6696 33.422 98.5331 33.5593L97.1683 36.8524C96.8953 37.4013 96.7589 38.0873 96.7589 38.3617C96.7589 38.7734 97.0318 39.0478 97.7142 39.0478H98.1237C98.3967 39.0478 98.5331 39.0478 98.5331 39.185C98.5331 39.3222 98.3967 39.4595 98.1237 39.4595C97.3048 39.4595 96.3494 39.3223 95.5305 39.3223C95.2575 39.3223 93.8927 39.4595 92.6643 39.4595C92.3914 39.4595 92.2549 39.4595 92.2549 39.185C92.2549 39.0478 92.3914 39.0478 92.5279 39.0478C92.8008 39.0478 93.0738 39.0478 93.2103 39.0478C94.3021 38.9106 94.8481 38.0873 95.2575 36.8524L101.399 21.7588C101.672 21.0728 101.809 20.7983 102.082 20.7983C102.355 20.7983 102.491 21.0728 102.628 21.6216C103.174 22.9938 107.132 32.736 108.633 36.4408C109.588 38.6362 110.271 38.9106 110.817 39.0478C111.226 39.185 111.499 39.185 111.772 39.185C111.909 39.185 112.045 39.185 112.045 39.3223C112.045 39.4595 111.772 39.5967 110.953 39.5967C110.134 39.5967 108.36 39.5967 106.313 39.5967C105.903 39.5967 105.63 39.5967 105.63 39.4595C105.63 39.3222 105.767 39.3222 105.903 39.185C106.04 39.185 106.176 38.9106 106.176 38.6362L104.265 33.5593C104.265 33.422 104.129 33.422 103.993 33.422H98.8061ZM103.72 32.1871C103.856 32.1871 103.856 32.0499 103.856 32.0499L101.672 26.0125C101.672 25.8753 101.672 25.738 101.536 25.738C101.399 25.738 101.399 25.8753 101.399 26.0125L99.0791 32.0499C99.0791 32.1871 99.0791 32.1871 99.2156 32.1871H103.72Z" fill="white"/>
</g>
<mask id="mask21_380_519" style="mask-type:luminance" maskUnits="userSpaceOnUse" x="9" y="2" width="309" height="66">
<path d="M318 2H9V68H318V2Z" fill="white"/>
</mask>
<g mask="url(#mask21_380_519)">
<path d="M116.549 28.3451C116.549 24.6403 116.549 23.9543 116.549 23.131C116.549 22.3077 116.277 21.896 115.458 21.7588C115.321 21.7588 114.912 21.6216 114.502 21.6216C114.229 21.6216 114.093 21.6216 114.093 21.3472C114.093 21.0728 114.229 21.0728 114.639 21.0728C115.867 21.0728 117.505 21.21 118.187 21.21C118.87 21.21 120.508 21.0728 121.872 21.0728C124.875 21.0728 128.97 21.0728 131.563 23.817C132.791 25.052 133.883 27.1102 133.883 29.9917C133.883 33.0104 132.655 35.343 131.29 36.7152C130.198 37.8129 127.605 39.5967 123.237 39.5967C122.418 39.5967 121.326 39.4594 120.508 39.4594C119.552 39.3222 118.733 39.3222 118.187 39.3222C117.914 39.3222 117.368 39.3222 116.822 39.3222C116.277 39.3222 115.594 39.3222 115.185 39.3222C114.912 39.3222 114.639 39.185 114.639 39.0478C114.639 38.9106 114.775 38.9106 115.048 38.9106C115.458 38.9106 115.731 38.9106 115.867 38.7734C116.413 38.6362 116.413 38.0873 116.549 37.4012C116.686 36.4407 116.686 34.5197 116.686 32.1871V28.3451H116.549ZM119.689 30.9522C119.689 33.5592 119.689 35.343 119.689 35.8919C119.689 36.4407 119.825 37.5385 119.962 37.6757C120.235 38.0873 121.19 38.6362 123.101 38.6362C125.557 38.6362 127.195 38.0873 128.697 36.8524C130.198 35.4802 130.744 33.2848 130.744 30.815C130.744 27.659 129.515 25.738 128.424 24.7775C126.24 22.5821 123.374 22.3077 121.599 22.3077C121.053 22.3077 120.235 22.4449 119.962 22.4449C119.689 22.5821 119.689 22.7193 119.689 22.9938C119.689 23.817 119.689 25.8752 119.689 27.7962V30.9522Z" fill="white"/>
</g>
<mask id="mask22_380_519" style="mask-type:luminance" maskUnits="userSpaceOnUse" x="9" y="2" width="309" height="66">
<path d="M318 2H9V68H318V2Z" fill="white"/>
</mask>
<g mask="url(#mask22_380_519)">
<path d="M140.843 28.3451C140.843 24.6403 140.843 23.9542 140.843 23.131C140.843 22.3077 140.57 21.896 140.024 21.7588C139.751 21.6216 139.478 21.6216 139.205 21.6216C138.932 21.6216 138.796 21.6216 138.796 21.3472C138.796 21.21 138.932 21.21 139.342 21.21C140.297 21.21 141.799 21.3472 142.481 21.3472C143.027 21.3472 144.528 21.21 145.484 21.21C145.757 21.21 146.03 21.21 146.03 21.3472C146.03 21.4844 145.893 21.6216 145.62 21.6216C145.347 21.6216 145.211 21.6216 144.938 21.7588C144.255 21.896 144.119 22.3077 143.982 23.131C143.982 23.9542 143.982 24.6403 143.982 28.3451V32.5987C143.982 34.9314 143.982 36.8524 144.119 37.9501C144.255 38.6362 144.392 39.0478 145.074 39.185C145.347 39.185 145.893 39.3222 146.303 39.3222C146.575 39.3222 146.712 39.4594 146.712 39.4594C146.712 39.5967 146.575 39.7339 146.303 39.7339C144.665 39.7339 143.163 39.5967 142.481 39.5967C141.935 39.5967 140.434 39.7339 139.478 39.7339C139.205 39.7339 138.932 39.5967 138.932 39.4594C138.932 39.3222 139.069 39.3222 139.342 39.3222C139.751 39.3222 140.024 39.3222 140.161 39.185C140.707 39.0478 140.843 38.6362 140.843 37.9501C140.98 36.9896 140.98 35.0686 140.98 32.5987V28.3451H140.843Z" fill="white"/>
</g>
<mask id="mask23_380_519" style="mask-type:luminance" maskUnits="userSpaceOnUse" x="9" y="2" width="309" height="66">
<path d="M318 2H9V68H318V2Z" fill="white"/>
</mask>
<g mask="url(#mask23_380_519)">
<path d="M154.765 33.422C154.629 33.422 154.629 33.422 154.492 33.5593L153.127 36.8524C152.854 37.4013 152.718 38.0873 152.718 38.3617C152.718 38.7734 152.991 39.0478 153.673 39.0478H154.083C154.356 39.0478 154.492 39.0478 154.492 39.185C154.492 39.3222 154.356 39.4595 154.083 39.4595C153.264 39.4595 152.308 39.3223 151.489 39.3223C151.216 39.3223 149.852 39.4595 148.623 39.4595C148.35 39.4595 148.214 39.4595 148.214 39.185C148.214 39.0478 148.35 39.0478 148.487 39.0478C148.76 39.0478 149.033 39.0478 149.169 39.0478C150.261 38.9106 150.807 38.0873 151.216 36.8524L157.358 21.7588C157.631 21.0728 157.768 20.7983 158.041 20.7983C158.314 20.7983 158.45 21.0728 158.587 21.6216C159.133 22.9938 163.091 32.736 164.592 36.4408C165.547 38.6362 166.23 38.9106 166.776 39.0478C167.185 39.185 167.458 39.185 167.731 39.185C167.868 39.185 168.004 39.185 168.004 39.3223C168.004 39.4595 167.731 39.5967 166.912 39.5967C166.093 39.5967 164.319 39.5967 162.408 39.5967C161.999 39.5967 161.726 39.5967 161.726 39.4595C161.726 39.3222 161.862 39.3222 161.999 39.185C162.135 39.185 162.272 38.9106 162.272 38.6362L160.361 33.5593C160.361 33.422 160.224 33.422 160.088 33.422H154.765ZM159.678 32.1871C159.815 32.1871 159.815 32.0499 159.815 32.0499L157.631 26.0125C157.631 25.8753 157.631 25.738 157.495 25.738C157.358 25.738 157.358 25.8753 157.358 26.0125L155.174 31.9127C155.174 32.0499 155.174 32.0499 155.311 32.0499H159.678V32.1871Z" fill="white"/>
</g>
<mask id="mask24_380_519" style="mask-type:luminance" maskUnits="userSpaceOnUse" x="9" y="2" width="309" height="66">
<path d="M318 2H9V68H318V2Z" fill="white"/>
</mask>
<g mask="url(#mask24_380_519)">
<path d="M182.062 37.4012C179.742 35.343 179.06 32.5987 179.06 30.2661C179.06 28.6195 179.606 25.738 181.926 23.5426C183.7 21.896 186.02 20.9355 189.569 20.9355C191.07 20.9355 192.026 21.0728 193.117 21.21C194.073 21.3472 194.755 21.4844 195.574 21.6216C195.847 21.6216 195.984 21.7588 195.984 21.896C195.984 22.0333 195.847 22.4449 195.847 23.2682C195.847 24.0915 195.847 25.4636 195.711 25.8753C195.711 26.2869 195.574 26.4241 195.438 26.4241C195.301 26.4241 195.165 26.2869 195.165 25.8753C195.165 25.1892 194.892 24.2287 194.209 23.6798C193.39 22.8565 191.48 22.1705 189.296 22.1705C187.249 22.1705 185.747 22.7193 184.792 23.6798C183.018 25.3264 182.608 27.659 182.608 29.9917C182.608 35.7547 186.976 38.6362 190.251 38.6362C192.435 38.6362 193.663 38.3617 194.619 37.264C195.028 36.8524 195.301 36.0291 195.438 35.6175C195.574 35.2058 195.574 35.0686 195.711 35.0686C195.847 35.0686 195.984 35.2058 195.984 35.4802C195.984 35.7547 195.711 37.9501 195.438 38.7734C195.301 39.185 195.165 39.3222 194.755 39.4595C193.8 39.8711 191.889 40.0083 190.388 40.0083C187.112 40.0083 184.246 39.3222 182.062 37.4012Z" fill="white"/>
</g>
<mask id="mask25_380_519" style="mask-type:luminance" maskUnits="userSpaceOnUse" x="9" y="2" width="309" height="66">
<path d="M318 2H9V68H318V2Z" fill="white"/>
</mask>
<g mask="url(#mask25_380_519)">
<path d="M200.351 30.4033C200.351 26.2869 203.08 20.9355 210.314 20.9355C216.319 20.9355 220.141 24.5031 220.141 29.9917C220.141 35.6175 216.319 40.0083 210.178 40.0083C203.08 40.0083 200.351 34.7942 200.351 30.4033ZM216.729 30.9522C216.729 25.4636 213.59 22.1705 209.632 22.1705C206.902 22.1705 203.626 23.6798 203.626 29.7173C203.626 34.7942 206.356 38.7734 210.996 38.7734C212.771 38.7734 216.729 37.9501 216.729 30.9522Z" fill="white"/>
</g>
<mask id="mask26_380_519" style="mask-type:luminance" maskUnits="userSpaceOnUse" x="9" y="2" width="309" height="66">
<path d="M318 2H9V68H318V2Z" fill="white"/>
</mask>
<g mask="url(#mask26_380_519)">
<path d="M230.104 32.5988C230.104 35.7547 230.104 37.4013 230.65 37.8129C231.059 38.2245 231.742 38.3618 233.516 38.3618C234.744 38.3618 235.7 38.3618 236.382 37.6757C236.655 37.4013 236.928 36.7152 237.065 36.1663C237.065 35.8919 237.201 35.7547 237.338 35.7547C237.474 35.7547 237.474 35.8919 237.474 36.1663C237.474 36.4408 237.338 38.2245 237.065 38.9106C236.928 39.4595 236.792 39.5967 235.563 39.5967C233.789 39.5967 232.561 39.5967 231.469 39.4595C230.377 39.4595 229.558 39.3223 228.466 39.3223C228.193 39.3223 227.647 39.3223 227.101 39.3223C226.555 39.3223 225.873 39.3223 225.463 39.3223C225.19 39.3223 224.917 39.185 224.917 39.0478C224.917 38.9106 225.054 38.9106 225.327 38.9106C225.736 38.9106 226.009 38.9106 226.146 38.7734C226.692 38.6362 226.692 38.0873 226.828 37.4013C226.965 36.4408 226.965 34.5198 226.965 32.1871V27.9335C226.965 24.2287 226.965 23.5426 226.965 22.7193C226.965 21.8961 226.692 21.4844 225.873 21.3472C225.736 21.3472 225.327 21.21 225.054 21.21C224.781 21.21 224.645 21.21 224.645 20.9356C224.645 20.7983 224.781 20.6611 225.19 20.6611C226.282 20.6611 227.784 20.7983 228.466 20.7983C229.012 20.7983 230.786 20.6611 231.742 20.6611C232.015 20.6611 232.288 20.6611 232.288 20.9356C232.288 21.0728 232.151 21.21 231.878 21.21C231.605 21.21 231.196 21.21 230.923 21.3472C230.24 21.4844 230.104 21.8961 229.967 22.7193C229.967 23.5426 229.967 24.2287 229.967 27.9335V32.5988H230.104Z" fill="white"/>
</g>
<mask id="mask27_380_519" style="mask-type:luminance" maskUnits="userSpaceOnUse" x="9" y="2" width="309" height="66">
<path d="M318 2H9V68H318V2Z" fill="white"/>
</mask>
<g mask="url(#mask27_380_519)">
<path d="M246.619 32.5988C246.619 35.7547 246.619 37.4013 247.164 37.8129C247.574 38.2245 248.256 38.3618 250.031 38.3618C251.259 38.3618 252.214 38.3618 252.897 37.6757C253.17 37.4013 253.443 36.7152 253.579 36.1663C253.579 35.8919 253.716 35.7547 253.852 35.7547C253.989 35.7547 253.989 35.8919 253.989 36.1663C253.989 36.4408 253.852 38.2245 253.579 38.9106C253.443 39.4595 253.306 39.5967 252.078 39.5967C250.304 39.5967 249.075 39.5967 247.983 39.4595C246.892 39.4595 246.073 39.3223 244.981 39.3223C244.708 39.3223 244.162 39.3223 243.616 39.3223C243.07 39.3223 242.388 39.3223 241.978 39.3223C241.705 39.3223 241.432 39.185 241.432 39.0478C241.432 38.9106 241.569 38.9106 241.842 38.9106C242.251 38.9106 242.524 38.9106 242.66 38.7734C243.206 38.6362 243.206 38.0873 243.343 37.4013C243.479 36.4408 243.479 34.5198 243.479 32.1871V27.9335C243.479 24.2287 243.479 23.5426 243.479 22.7193C243.479 21.8961 243.206 21.4844 242.388 21.3472C242.251 21.3472 241.842 21.21 241.569 21.21C241.296 21.21 241.159 21.21 241.159 20.9356C241.159 20.7983 241.296 20.6611 241.705 20.6611C242.797 20.6611 244.435 20.7983 244.981 20.7983C245.527 20.7983 247.301 20.6611 248.256 20.6611C248.529 20.6611 248.802 20.6611 248.802 20.9356C248.802 21.0728 248.666 21.21 248.393 21.21C248.12 21.21 247.71 21.21 247.437 21.3472C246.755 21.4844 246.619 21.8961 246.482 22.7193C246.482 23.5426 246.482 24.2287 246.482 27.9335V32.5988H246.619Z" fill="white"/>
</g>
<mask id="mask28_380_519" style="mask-type:luminance" maskUnits="userSpaceOnUse" x="9" y="2" width="309" height="66">
<path d="M318 2H9V68H318V2Z" fill="white"/>
</mask>
<g mask="url(#mask28_380_519)">
<path d="M260.131 28.3451C260.131 24.6403 260.131 23.9543 260.131 23.131C260.131 22.3077 259.858 21.8961 259.039 21.7588C258.902 21.7588 258.493 21.6216 258.083 21.6216C257.81 21.6216 257.674 21.6216 257.674 21.3472C257.674 21.21 257.811 21.0728 258.22 21.0728C258.902 21.0728 259.585 21.0728 260.131 21.0728C260.813 21.0728 261.359 21.0728 261.632 21.0728C262.451 21.0728 267.228 21.0728 267.637 21.0728C268.047 21.0728 268.456 20.9356 268.729 20.9356C268.866 20.9356 269.002 20.7983 269.139 20.7983C269.275 20.7983 269.275 20.9356 269.275 21.0728C269.275 21.21 269.139 21.4844 269.139 22.7193C269.139 22.9938 269.002 24.0915 269.002 24.3659C269.002 24.5031 268.866 24.6403 268.729 24.6403C268.593 24.6403 268.456 24.5031 268.456 24.3659C268.456 24.2287 268.456 23.8171 268.32 23.5426C268.183 23.131 267.91 22.8566 266.682 22.7193C266.273 22.7193 263.679 22.5821 263.27 22.5821C263.133 22.5821 263.133 22.7193 263.133 22.8566V29.0312C263.133 29.1684 263.133 29.3056 263.27 29.3056C263.816 29.3056 266.545 29.3056 267.091 29.3056C267.637 29.3056 268.047 29.1684 268.32 28.894C268.456 28.7568 268.593 28.6195 268.729 28.6195C268.866 28.6195 268.866 28.6195 268.866 28.7568C268.866 28.894 268.729 29.3056 268.729 30.5405C268.729 31.0894 268.593 32.0499 268.593 32.1871C268.593 32.3243 268.593 32.5988 268.32 32.5988C268.183 32.5988 268.047 32.4615 268.047 32.3243C268.047 32.0499 268.047 31.7755 267.91 31.501C267.774 30.9522 267.501 30.6778 266.545 30.5405C266.136 30.5405 263.679 30.4033 263.133 30.4033C262.997 30.4033 262.997 30.5405 262.997 30.6778V32.5988C262.997 33.422 262.997 35.6175 262.997 36.3035C262.997 37.9501 263.406 38.3617 265.863 38.3617C266.545 38.3617 267.501 38.3617 268.183 38.0873C268.866 37.8129 269.139 37.264 269.275 36.3035C269.275 36.0291 269.412 35.8919 269.548 35.8919C269.685 35.8919 269.685 36.0291 269.685 36.3035C269.685 36.8524 269.548 38.499 269.412 39.0478C269.275 39.7339 269.002 39.7339 268.047 39.7339C266.273 39.7339 264.908 39.7339 263.816 39.5967C262.724 39.5967 262.041 39.4595 261.359 39.4595C261.086 39.4595 260.54 39.4595 259.994 39.4595C259.448 39.4595 258.766 39.4595 258.356 39.4595C258.083 39.4595 257.811 39.3222 257.811 39.185C257.811 39.0478 257.947 39.0478 258.22 39.0478C258.629 39.0478 258.902 39.0478 259.039 38.9106C259.585 38.7734 259.585 38.2245 259.721 37.5385C259.858 36.578 259.858 34.657 259.858 32.3243V28.3451H260.131Z" fill="white"/>
</g>
<mask id="mask29_380_519" style="mask-type:luminance" maskUnits="userSpaceOnUse" x="9" y="2" width="309" height="66">
<path d="M318 2H9V68H318V2Z" fill="white"/>
</mask>
<g mask="url(#mask29_380_519)">
<path d="M291.931 38.0873C291.931 38.7734 291.931 38.7734 291.658 38.9106C290.02 39.7339 287.7 40.0083 285.789 40.0083C279.921 40.0083 274.598 37.1268 274.598 30.4033C274.598 26.5613 276.645 23.8171 278.829 22.4449C281.149 21.0728 283.333 20.7983 285.38 20.7983C287.018 20.7983 289.201 21.0728 289.611 21.21C290.157 21.3472 290.976 21.4844 291.522 21.4844C291.795 21.4844 291.795 21.6216 291.795 21.7588C291.795 22.0333 291.658 22.7193 291.658 25.738C291.658 26.1497 291.522 26.2869 291.385 26.2869C291.249 26.2869 291.112 26.1497 291.112 26.0125C290.976 25.4636 290.976 24.6403 290.293 23.9543C289.611 23.131 287.564 22.0333 284.834 22.0333C283.469 22.0333 281.695 22.1705 280.057 23.5426C278.692 24.6403 277.873 26.5613 277.873 29.4428C277.873 34.657 281.149 38.6362 286.335 38.6362C287.018 38.6362 287.837 38.6362 288.383 38.3617C288.792 38.2245 288.792 37.8129 288.792 37.4012V35.0686C288.792 33.8337 288.792 32.8732 288.792 32.1871C288.792 31.3638 288.519 30.9522 287.7 30.815C287.564 30.815 287.154 30.6778 286.745 30.6778C286.472 30.6778 286.335 30.6778 286.335 30.5405C286.335 30.4033 286.472 30.2661 286.881 30.2661C288.11 30.2661 289.611 30.4033 290.43 30.4033C291.112 30.4033 292.477 30.2661 293.296 30.2661C293.569 30.2661 293.842 30.2661 293.842 30.5405C293.842 30.6778 293.705 30.6778 293.569 30.6778C293.432 30.6778 293.159 30.6778 292.887 30.815C292.204 30.9522 291.931 31.3638 291.931 32.1871C291.931 32.8732 291.931 33.8337 291.931 35.0686V38.0873Z" fill="white"/>
</g>
<mask id="mask30_380_519" style="mask-type:luminance" maskUnits="userSpaceOnUse" x="9" y="2" width="309" height="66">
<path d="M318 2H9V68H318V2Z" fill="white"/>
</mask>
<g mask="url(#mask30_380_519)">
<path d="M300.53 28.3451C300.53 24.6403 300.53 23.9543 300.53 23.131C300.53 22.3077 300.257 21.8961 299.438 21.7588C299.302 21.7588 298.892 21.6216 298.483 21.6216C298.21 21.6216 298.073 21.6216 298.073 21.3472C298.073 21.21 298.21 21.0728 298.619 21.0728C299.302 21.0728 299.984 21.0728 300.53 21.0728C301.213 21.0728 301.758 21.0728 302.031 21.0728C302.85 21.0728 307.627 21.0728 308.037 21.0728C308.446 21.0728 308.856 20.9356 309.129 20.9356C309.265 20.9356 309.402 20.7983 309.538 20.7983C309.675 20.7983 309.675 20.9356 309.675 21.0728C309.675 21.21 309.538 21.4844 309.538 22.7193C309.538 22.9938 309.402 24.0915 309.402 24.3659C309.402 24.5031 309.265 24.6403 309.129 24.6403C308.992 24.6403 308.856 24.5031 308.856 24.3659C308.856 24.2287 308.856 23.8171 308.719 23.5426C308.583 23.131 308.31 22.8566 307.081 22.7193C306.672 22.7193 304.079 22.5821 303.669 22.5821C303.533 22.5821 303.533 22.7193 303.533 22.8566V29.0312C303.533 29.1684 303.533 29.3056 303.669 29.3056C304.215 29.3056 306.945 29.3056 307.491 29.3056C308.037 29.3056 308.446 29.1684 308.719 28.894C308.856 28.7568 308.992 28.6195 309.129 28.6195C309.265 28.6195 309.265 28.6195 309.265 28.7568C309.265 28.894 309.129 29.3056 309.129 30.5405C309.129 31.0894 308.992 32.0499 308.992 32.1871C308.992 32.3243 308.992 32.5988 308.719 32.5988C308.583 32.5988 308.446 32.4615 308.446 32.3243C308.446 32.0499 308.446 31.7755 308.31 31.501C308.173 30.9522 307.9 30.6778 306.945 30.5405C306.535 30.5405 304.079 30.4033 303.533 30.4033C303.396 30.4033 303.396 30.5405 303.396 30.6778V32.5988C303.396 33.422 303.396 35.6175 303.396 36.3035C303.396 37.9501 303.806 38.3617 306.262 38.3617C306.945 38.3617 307.9 38.3617 308.583 38.0873C309.265 37.8129 309.538 37.264 309.675 36.3035C309.675 36.0291 309.811 35.8919 309.947 35.8919C310.084 35.8919 310.084 36.0291 310.084 36.3035C310.084 36.8524 309.947 38.499 309.811 39.0478C309.675 39.7339 309.402 39.7339 308.446 39.7339C306.672 39.7339 305.307 39.7339 304.215 39.5967C303.123 39.5967 302.441 39.4595 301.758 39.4595C301.485 39.4595 300.94 39.4595 300.394 39.4595C299.848 39.4595 299.165 39.4595 298.756 39.4595C298.483 39.4595 298.21 39.3222 298.21 39.185C298.21 39.0478 298.346 39.0478 298.619 39.0478C299.029 39.0478 299.302 39.0478 299.438 38.9106C299.984 38.7734 299.984 38.2245 300.121 37.5385C300.257 36.578 300.257 34.657 300.257 32.3243V28.3451H300.53Z" fill="white"/>
</g>
</g>
<defs>
<clipPath id="clip0_380_519">
<rect width="309" height="30" fill="white" transform="translate(9 15)"/>
</clipPath>
</defs>
</svg>
