<svg width="70" height="70" viewBox="0 0 70 70" fill="none" xmlns="http://www.w3.org/2000/svg">
<circle cx="35" cy="35" r="35" fill="#132B6C"/>
<path d="M31.425 17.6383L20.3884 24.8433C16.85 27.1533 16.85 32.3233 20.3884 34.6333L31.425 41.8383C33.405 43.1399 36.6684 43.1399 38.6484 41.8383L49.63 34.6333C53.15 32.3233 53.15 27.1716 49.63 24.8616L38.6484 17.6566C36.6684 16.3366 33.405 16.3366 31.425 17.6383Z" stroke="#F2F3F5" stroke-width="2" stroke-linecap="round" stroke-linejoin="round"/>
<path d="M23.3216 36.98L23.3032 45.5783C23.3032 47.9066 25.0999 50.4 27.2999 51.1333L33.1482 53.0766C34.1566 53.4066 35.8249 53.4066 36.8516 53.0766L42.6999 51.1333C44.8999 50.4 46.6966 47.9066 46.6966 45.5783V37.0716" stroke="#F2F3F5" stroke-width="2" stroke-linecap="round" stroke-linejoin="round"/>
<path d="M52.2334 40.5V29.5" stroke="#F2F3F5" stroke-width="2" stroke-linecap="round" stroke-linejoin="round"/>
</svg>
