<svg width="90" height="90" viewBox="0 0 90 90" fill="none" xmlns="http://www.w3.org/2000/svg">
<circle cx="45" cy="45" r="45" fill="white"/>
<path d="M45.5 63.4001C44.9375 63.4001 44.375 63.2688 43.9062 63.0063C40.4 61.0938 34.2312 59.0688 30.3688 58.5626L29.825 58.4876C27.3688 58.1876 25.3438 55.8813 25.3438 53.3876V30.7376C25.3438 29.2563 25.925 27.9063 26.9938 26.9313C28.0625 25.9563 29.45 25.4876 30.9125 25.6188C35.0375 25.9376 41.2625 28.0001 44.7875 30.2126L45.2375 30.4751C45.3687 30.5501 45.65 30.5501 45.7625 30.4938L46.0625 30.3063C49.5875 28.0938 55.8125 25.9938 59.9562 25.6376C59.9937 25.6376 60.1437 25.6376 60.1813 25.6376C61.55 25.5063 62.9563 25.9938 64.0063 26.9688C65.075 27.9438 65.6562 29.2938 65.6562 30.7751V53.4063C65.6562 55.9188 63.6313 58.2063 61.1562 58.5063L60.5375 58.5813C56.675 59.0876 50.4875 61.1313 47.0562 63.0251C46.6063 63.2876 46.0625 63.4001 45.5 63.4001ZM30.4625 28.4126C29.8625 28.4126 29.3188 28.6188 28.8875 29.0126C28.4188 29.4438 28.1562 30.0626 28.1562 30.7376V53.3876C28.1562 54.4938 29.1125 55.5626 30.1812 55.7126L30.7438 55.7876C34.9625 56.3501 41.4312 58.4688 45.1812 60.5126C45.35 60.5876 45.5938 60.6063 45.6875 60.5688C49.4375 58.4876 55.9438 56.3501 60.1813 55.7876L60.8187 55.7126C61.8875 55.5813 62.8438 54.4938 62.8438 53.3876V30.7563C62.8438 30.0626 62.5813 29.4626 62.1125 29.0126C61.625 28.5813 61.0062 28.3751 60.3125 28.4126C60.275 28.4126 60.125 28.4126 60.0875 28.4126C56.5063 28.7313 50.7312 30.6626 47.5812 32.6313L47.2812 32.8376C46.25 33.4751 44.7875 33.4751 43.7938 32.8563L43.3438 32.5938C40.1375 30.6251 34.3625 28.7126 30.6875 28.4126C30.6125 28.4126 30.5375 28.4126 30.4625 28.4126Z" fill="#24408E"/>
<path d="M45.5 61.825C44.7312 61.825 44.0938 61.1875 44.0938 60.4187V32.2937C44.0938 31.525 44.7312 30.8875 45.5 30.8875C46.2687 30.8875 46.9062 31.525 46.9062 32.2937V60.4187C46.9062 61.2062 46.2687 61.825 45.5 61.825Z" fill="#24408E"/>
<path d="M37.5312 39.325H33.3125C32.5437 39.325 31.9062 38.6875 31.9062 37.9187C31.9062 37.15 32.5437 36.5125 33.3125 36.5125H37.5312C38.3 36.5125 38.9375 37.15 38.9375 37.9187C38.9375 38.6875 38.3 39.325 37.5312 39.325Z" fill="#24408E"/>
<path d="M38.9375 44.95H33.3125C32.5437 44.95 31.9062 44.3125 31.9062 43.5437C31.9062 42.775 32.5437 42.1375 33.3125 42.1375H38.9375C39.7063 42.1375 40.3438 42.775 40.3438 43.5437C40.3438 44.3125 39.7063 44.95 38.9375 44.95Z" fill="#24408E"/>
</svg>
