<svg width="44" height="44" viewBox="0 0 44 44" fill="none" xmlns="http://www.w3.org/2000/svg">
<circle cx="22.0229" cy="21.978" r="21.978" fill="white"/>
<path d="M28.732 18.4591C28.7434 18.6129 28.7434 18.7659 28.7434 18.9188C28.7434 23.6002 25.1804 28.9944 18.6687 28.9944C16.6626 28.9944 14.7988 28.4133 13.2305 27.4041C13.5153 27.4366 13.7896 27.4481 14.0859 27.4481C15.6797 27.4519 17.2284 26.919 18.4823 25.9351C17.7434 25.9217 17.027 25.6779 16.4333 25.2377C15.8396 24.7975 15.3982 24.1829 15.1707 23.4797C15.3896 23.5122 15.6094 23.5342 15.8397 23.5342C16.1571 23.5342 16.4762 23.4903 16.7724 23.4138C15.9705 23.2519 15.2493 22.8172 14.7317 22.1836C14.214 21.5501 13.9317 20.7568 13.9329 19.9386V19.8947C14.405 20.1575 14.9527 20.3219 15.5329 20.3439C15.0468 20.0209 14.6482 19.5826 14.3727 19.0681C14.0972 18.5536 13.9534 17.9789 13.954 17.3953C13.954 16.7377 14.1289 16.1347 14.4357 15.6089C15.3255 16.7035 16.4353 17.5989 17.6932 18.2372C18.9511 18.8755 20.329 19.2425 21.7377 19.3144C21.6832 19.0507 21.6498 18.7773 21.6498 18.503C21.6496 18.0379 21.741 17.5774 21.9189 17.1476C22.0968 16.7179 22.3576 16.3274 22.6865 15.9986C23.0153 15.6697 23.4058 15.4089 23.8355 15.231C24.2652 15.0531 24.7258 14.9617 25.1909 14.9619C26.2107 14.9619 27.1311 15.3892 27.7782 16.0802C28.5709 15.9269 29.3312 15.6375 30.0252 15.2248C29.7609 16.0431 29.2074 16.737 28.4683 17.1764C29.1714 17.0962 29.8585 16.9113 30.507 16.6278C30.0227 17.3339 29.4226 17.953 28.732 18.4591Z" fill="#E02829"/>
</svg>
