<svg width="44" height="44" viewBox="0 0 44 44" fill="none" xmlns="http://www.w3.org/2000/svg">
<circle cx="22.0015" cy="21.978" r="21.978" fill="white"/>
<path d="M21.9998 17.7529C19.6612 17.7529 17.7738 19.6403 17.7738 21.9789C17.7738 24.3175 19.6612 26.2048 21.9998 26.2048C24.3384 26.2048 26.2257 24.3175 26.2257 21.9789C26.2257 19.6403 24.3384 17.7529 21.9998 17.7529ZM21.9998 24.7254C20.4874 24.7254 19.2532 23.4912 19.2532 21.9789C19.2532 20.4665 20.4874 19.2323 21.9998 19.2323C23.5121 19.2323 24.7463 20.4665 24.7463 21.9789C24.7463 23.4912 23.5121 24.7254 21.9998 24.7254ZM26.3988 16.5949C25.8528 16.5949 25.4118 17.0359 25.4118 17.5819C25.4118 18.1279 25.8528 18.5688 26.3988 18.5688C26.9448 18.5688 27.3857 18.13 27.3857 17.5819C27.3859 17.4522 27.3605 17.3238 27.3109 17.204C27.2614 17.0842 27.1887 16.9753 27.097 16.8836C27.0054 16.792 26.8965 16.7193 26.7767 16.6697C26.6569 16.6202 26.5284 16.5948 26.3988 16.5949ZM30.2374 21.9789C30.2374 20.8415 30.2477 19.7144 30.1838 18.5791C30.1199 17.2605 29.8191 16.0901 28.8548 15.1258C27.8885 14.1595 26.7202 13.8607 25.4015 13.7969C24.2642 13.733 23.1371 13.7433 22.0018 13.7433C20.8645 13.7433 19.7374 13.733 18.6021 13.7969C17.2834 13.8607 16.1131 14.1616 15.1488 15.1258C14.1824 16.0922 13.8837 17.2605 13.8198 18.5791C13.7559 19.7165 13.7662 20.8436 13.7662 21.9789C13.7662 23.1142 13.7559 24.2433 13.8198 25.3786C13.8837 26.6973 14.1845 27.8676 15.1488 28.8319C16.1151 29.7982 17.2834 30.097 18.6021 30.1609C19.7395 30.2247 20.8665 30.2144 22.0018 30.2144C23.1392 30.2144 24.2662 30.2247 25.4015 30.1609C26.7202 30.097 27.8906 29.7962 28.8548 28.8319C29.8212 27.8655 30.1199 26.6973 30.1838 25.3786C30.2498 24.2433 30.2374 23.1162 30.2374 21.9789ZM28.4242 26.8374C28.2738 27.2124 28.0925 27.4926 27.802 27.7811C27.5114 28.0716 27.2333 28.2529 26.8583 28.4033C25.7745 28.8339 23.201 28.7371 21.9998 28.7371C20.7985 28.7371 18.223 28.8339 17.1392 28.4054C16.7642 28.255 16.484 28.0736 16.1955 27.7831C15.905 27.4926 15.7237 27.2144 15.5732 26.8394C15.1447 25.7536 15.2415 23.1801 15.2415 21.9789C15.2415 20.7776 15.1447 18.2021 15.5732 17.1183C15.7237 16.7433 15.905 16.4631 16.1955 16.1746C16.486 15.8861 16.7642 15.7028 17.1392 15.5524C18.223 15.1238 20.7985 15.2206 21.9998 15.2206C23.201 15.2206 25.7765 15.1238 26.8603 15.5524C27.2353 15.7028 27.5156 15.8841 27.804 16.1746C28.0945 16.4651 28.2759 16.7433 28.4263 17.1183C28.8548 18.2021 28.758 20.7776 28.758 21.9789C28.758 23.1801 28.8548 25.7536 28.4242 26.8374Z" fill="#E02829"/>
</svg>
