<svg width="90" height="90" viewBox="0 0 90 90" fill="none" xmlns="http://www.w3.org/2000/svg">
<circle cx="45" cy="45" r="45" fill="white"/>
<path d="M40.1738 43.7875C40.1176 43.7875 40.0801 43.7875 40.0238 43.7875C39.9301 43.7687 39.7988 43.7687 39.6863 43.7875C34.2488 43.6187 30.1426 39.3438 30.1426 34.075C30.1426 28.7125 34.5113 24.3438 39.8738 24.3438C45.2363 24.3438 49.6051 28.7125 49.6051 34.075C49.5863 39.3438 45.4613 43.6187 40.2301 43.7875C40.2113 43.7875 40.1926 43.7875 40.1738 43.7875ZM39.8738 27.1562C36.0676 27.1562 32.9551 30.2688 32.9551 34.075C32.9551 37.825 35.8801 40.8438 39.6113 40.975C39.7238 40.9562 39.9676 40.9562 40.2113 40.975C43.8863 40.8062 46.7738 37.7875 46.7926 34.075C46.7926 30.2688 43.6801 27.1562 39.8738 27.1562Z" fill="#24408E"/>
<path d="M54.0119 44.0312C53.9557 44.0312 53.8994 44.0312 53.8432 44.0125C53.0744 44.0875 52.2869 43.5437 52.2119 42.775C52.1369 42.0062 52.6057 41.3125 53.3744 41.2188C53.5994 41.2 53.8432 41.2 54.0494 41.2C56.7869 41.05 58.9244 38.8 58.9244 36.0437C58.9244 33.1937 56.6182 30.8875 53.7682 30.8875C52.9994 30.9062 52.3619 30.2687 52.3619 29.5C52.3619 28.7312 52.9994 28.0938 53.7682 28.0938C58.1557 28.0938 61.7369 31.675 61.7369 36.0625C61.7369 40.375 58.3619 43.8625 54.0682 44.0312C54.0494 44.0312 54.0307 44.0312 54.0119 44.0312Z" fill="#24408E"/>
<path d="M40.1928 64.2812C36.5178 64.2812 32.824 63.3437 30.0303 61.4687C27.424 59.7437 25.999 57.3812 25.999 54.8125C25.999 52.2437 27.424 49.8625 30.0303 48.1188C35.6553 44.3875 44.7678 44.3875 50.3553 48.1188C52.9428 49.8438 54.3865 52.2062 54.3865 54.775C54.3865 57.3437 52.9615 59.725 50.3553 61.4687C47.5428 63.3437 43.8678 64.2812 40.1928 64.2812ZM31.5865 50.4812C29.7865 51.6812 28.8115 53.2187 28.8115 54.8312C28.8115 56.425 29.8053 57.9625 31.5865 59.1437C36.2553 62.275 44.1303 62.275 48.799 59.1437C50.599 57.9437 51.574 56.4062 51.574 54.7937C51.574 53.2 50.5803 51.6625 48.799 50.4812C44.1303 47.3687 36.2553 47.3687 31.5865 50.4812Z" fill="#24408E"/>
<path d="M57.3871 60.9063C56.7308 60.9063 56.1496 60.4563 56.0183 59.7813C55.8683 59.0125 56.3558 58.2813 57.1058 58.1125C58.2871 57.8688 59.3746 57.4 60.2183 56.7438C61.2871 55.9375 61.8683 54.925 61.8683 53.8563C61.8683 52.7875 61.2871 51.775 60.2371 50.9875C59.4121 50.35 58.3808 49.9 57.1621 49.6188C56.4121 49.45 55.9246 48.7 56.0933 47.9313C56.2621 47.1813 57.0121 46.6938 57.7808 46.8625C59.3933 47.2188 60.7996 47.8563 61.9433 48.7375C63.6871 50.05 64.6808 51.9063 64.6808 53.8563C64.6808 55.8063 63.6683 57.6625 61.9246 58.9938C60.7621 59.8938 59.2996 60.55 57.6871 60.8688C57.5746 60.9063 57.4808 60.9063 57.3871 60.9063Z" fill="#24408E"/>
</svg>
