<svg width="90" height="90" viewBox="0 0 90 90" fill="none" xmlns="http://www.w3.org/2000/svg">
<circle cx="45" cy="45" r="45" fill="white"/>
<path d="M51.125 64.6562H39.875C29.6938 64.6562 25.3438 60.3063 25.3438 50.125V38.875C25.3438 28.6938 29.6938 24.3438 39.875 24.3438H51.125C61.3063 24.3438 65.6562 28.6938 65.6562 38.875V50.125C65.6562 60.3063 61.3063 64.6562 51.125 64.6562ZM39.875 27.1562C31.2312 27.1562 28.1562 30.2312 28.1562 38.875V50.125C28.1562 58.7687 31.2312 61.8438 39.875 61.8438H51.125C59.7687 61.8438 62.8438 58.7687 62.8438 50.125V38.875C62.8438 30.2312 59.7687 27.1562 51.125 27.1562H39.875Z" fill="#24408E"/>
<path d="M39.275 50.7439C38.4875 50.7439 37.7563 50.5564 37.1188 50.2002C35.5625 49.3189 34.7188 47.5752 34.7188 45.2877V26.5752C34.7188 25.8064 35.3562 25.1689 36.125 25.1689C36.8937 25.1689 37.5312 25.8064 37.5312 26.5752V45.2877C37.5312 46.5064 37.8875 47.4064 38.5063 47.7439C39.1625 48.1189 40.175 47.9314 41.2812 47.2752L43.7562 45.7939C44.7687 45.1939 46.2125 45.1939 47.225 45.7939L49.7 47.2752C50.825 47.9502 51.8375 48.1189 52.475 47.7439C53.0938 47.3877 53.45 46.4877 53.45 45.2877V26.5752C53.45 25.8064 54.0875 25.1689 54.8562 25.1689C55.625 25.1689 56.2625 25.8064 56.2625 26.5752V45.2877C56.2625 47.5752 55.4187 49.3189 53.8625 50.2002C52.3062 51.0814 50.2625 50.8939 48.2562 49.6939L45.7812 48.2127C45.6687 48.1377 45.3125 48.1377 45.2 48.2127L42.725 49.6939C41.5625 50.3877 40.3625 50.7439 39.275 50.7439Z" fill="#24408E"/>
<path d="M51.125 64.6562H39.875C29.6938 64.6562 25.3438 60.3063 25.3438 50.125V38.875C25.3438 28.6938 29.6938 24.3438 39.875 24.3438H51.125C61.3063 24.3438 65.6562 28.6938 65.6562 38.875V50.125C65.6562 60.3063 61.3063 64.6562 51.125 64.6562ZM39.875 27.1562C31.2312 27.1562 28.1562 30.2312 28.1562 38.875V50.125C28.1562 58.7687 31.2312 61.8438 39.875 61.8438H51.125C59.7687 61.8438 62.8438 58.7687 62.8438 50.125V38.875C62.8438 30.2312 59.7687 27.1562 51.125 27.1562H39.875Z" fill="#24408E"/>
<path d="M39.275 50.7439C38.4875 50.7439 37.7563 50.5564 37.1188 50.2002C35.5625 49.3189 34.7188 47.5752 34.7188 45.2877V26.5752C34.7188 25.8064 35.3562 25.1689 36.125 25.1689C36.8937 25.1689 37.5312 25.8064 37.5312 26.5752V45.2877C37.5312 46.5064 37.8875 47.4064 38.5063 47.7439C39.1625 48.1189 40.175 47.9314 41.2812 47.2752L43.7562 45.7939C44.7687 45.1939 46.2125 45.1939 47.225 45.7939L49.7 47.2752C50.825 47.9502 51.8375 48.1189 52.475 47.7439C53.0938 47.3877 53.45 46.4877 53.45 45.2877V26.5752C53.45 25.8064 54.0875 25.1689 54.8562 25.1689C55.625 25.1689 56.2625 25.8064 56.2625 26.5752V45.2877C56.2625 47.5752 55.4187 49.3189 53.8625 50.2002C52.3062 51.0814 50.2625 50.8939 48.2562 49.6939L45.7812 48.2127C45.6687 48.1377 45.3125 48.1377 45.2 48.2127L42.725 49.6939C41.5625 50.3877 40.3625 50.7439 39.275 50.7439Z" fill="#24408E"/>
</svg>
