<svg width="90" height="90" viewBox="0 0 90 90" fill="none" xmlns="http://www.w3.org/2000/svg">
<circle cx="45" cy="45" r="45" fill="white"/>
<path d="M29.5625 57.1562C28.7937 57.1562 28.1562 56.5187 28.1562 55.75V35.125C28.1562 26.8563 30.6688 24.3438 38.9375 24.3438H52.0625C60.3312 24.3438 62.8438 26.8563 62.8438 35.125V53.875C62.8438 54.175 62.8438 54.4562 62.825 54.7562C62.7687 55.525 62.075 56.125 61.325 56.0688C60.5563 56.0125 59.9562 55.3375 60.0125 54.5688C60.0312 54.3438 60.0312 54.1 60.0312 53.875V35.125C60.0312 28.4313 58.775 27.1562 52.0625 27.1562H38.9375C32.225 27.1562 30.9688 28.4313 30.9688 35.125V55.75C30.9688 56.5187 30.3312 57.1562 29.5625 57.1562Z" fill="#24408E"/>
<path d="M54.875 64.6562H36.125C31.7375 64.6562 28.1562 61.075 28.1562 56.6875V55.4688C28.1562 51.7375 31.1937 48.7188 34.9062 48.7188H61.4375C62.2062 48.7188 62.8438 49.3562 62.8438 50.125V56.6875C62.8438 61.075 59.2625 64.6562 54.875 64.6562ZM34.9062 51.5312C32.7312 51.5312 30.9688 53.2938 30.9688 55.4688V56.6875C30.9688 59.5375 33.275 61.8438 36.125 61.8438H54.875C57.725 61.8438 60.0312 59.5375 60.0312 56.6875V51.5312H34.9062Z" fill="#24408E"/>
<path d="M53 36.5312H38C37.2312 36.5312 36.5938 35.8937 36.5938 35.125C36.5938 34.3562 37.2312 33.7188 38 33.7188H53C53.7687 33.7188 54.4062 34.3562 54.4062 35.125C54.4062 35.8937 53.7687 36.5312 53 36.5312Z" fill="#24408E"/>
<path d="M47.375 43.0938H38C37.2312 43.0938 36.5938 42.4562 36.5938 41.6875C36.5938 40.9187 37.2312 40.2812 38 40.2812H47.375C48.1438 40.2812 48.7812 40.9187 48.7812 41.6875C48.7812 42.4562 48.1438 43.0938 47.375 43.0938Z" fill="#24408E"/>
</svg>
