<svg width="44" height="44" viewBox="0 0 44 44" fill="none" xmlns="http://www.w3.org/2000/svg">
<circle cx="22" cy="22" r="22" fill="#00598B"/>
<g clip-path="url(#clip0_951_5835)">
<path d="M31.8095 13.9399C30.2695 17.7799 26.4095 22.9999 23.1795 25.5899L21.2095 27.1699C20.9595 27.3499 20.7095 27.5099 20.4295 27.6199C20.4295 27.4399 20.4195 27.2399 20.3895 27.0499C20.2795 26.2099 19.8995 25.4299 19.2295 24.7599C18.5495 24.0799 17.7195 23.6799 16.8695 23.5699C16.6695 23.5599 16.4695 23.5399 16.2695 23.5599C16.3795 23.2499 16.5495 22.9599 16.7595 22.7199L18.3195 20.7499C20.8995 17.5199 26.1395 13.6399 29.9695 12.1099C30.5595 11.8899 31.1295 12.0499 31.4895 12.4199C31.8695 12.7899 32.0495 13.3599 31.8095 13.9399Z" stroke="white" stroke-width="1.5" stroke-linecap="round" stroke-linejoin="round"/>
<path d="M20.4303 27.6201C20.4303 28.7201 20.0103 29.77 19.2203 30.57C18.6103 31.18 17.7803 31.6001 16.7903 31.7301L14.3303 32.0001C12.9903 32.1501 11.8403 31.01 12.0003 29.65L12.2703 27.1901C12.5103 25.0001 14.3403 23.6001 16.2803 23.5601C16.4803 23.5501 16.6903 23.56 16.8803 23.57C17.7303 23.68 18.5603 24.0701 19.2403 24.7601C19.9103 25.4301 20.2903 26.21 20.4003 27.05C20.4103 27.24 20.4303 27.4301 20.4303 27.6201Z" stroke="white" stroke-width="1.5" stroke-linecap="round" stroke-linejoin="round"/>
<path d="M24.2398 24.47C24.2398 21.86 22.1198 19.74 19.5098 19.74" stroke="white" stroke-width="1.5" stroke-linecap="round" stroke-linejoin="round"/>
<path d="M30.1197 22.73L30.8597 23.46C32.3497 24.95 32.3497 26.42 30.8597 27.91L27.8997 30.87C26.4297 32.34 24.9397 32.34 23.4697 30.87" stroke="white" stroke-width="1.5" stroke-linecap="round"/>
<path d="M13.1103 20.5101C11.6403 19.0201 11.6403 17.5501 13.1103 16.0601L16.0703 13.1001C17.5403 11.6301 19.0303 11.6301 20.5003 13.1001L21.2403 13.8401" stroke="white" stroke-width="1.5" stroke-linecap="round"/>
<path d="M21.2498 13.8501L17.5498 17.5501" stroke="white" stroke-width="1.5" stroke-linecap="round"/>
<path d="M30.1202 22.73L27.1602 25.68" stroke="white" stroke-width="1.5" stroke-linecap="round"/>
</g>
<defs>
<clipPath id="clip0_951_5835">
<rect width="24" height="24" fill="white" transform="translate(10 10)"/>
</clipPath>
</defs>
</svg>
