<svg width="54" height="54" viewBox="0 0 54 54" fill="none" xmlns="http://www.w3.org/2000/svg">
<path d="M22.6124 5.6924L9.06742 14.5349C4.72492 17.3699 4.72492 23.7149 9.06742 26.5499L22.6124 35.3924C25.0424 36.9899 29.0474 36.9899 31.4774 35.3924L44.9549 26.5499C49.2749 23.7149 49.2749 17.3924 44.9549 14.5574L31.4774 5.7149C29.0474 4.0949 25.0424 4.0949 22.6124 5.6924Z" stroke="white" stroke-width="3" stroke-linecap="round" stroke-linejoin="round"/>
<path d="M12.667 29.4299L12.6445 39.9824C12.6445 42.8399 14.8495 45.8999 17.5495 46.7999L24.727 49.1849C25.9645 49.5899 28.012 49.5899 29.272 49.1849L36.4495 46.7999C39.1495 45.8999 41.3545 42.8399 41.3545 39.9824V29.5424" stroke="white" stroke-width="3" stroke-linecap="round" stroke-linejoin="round"/>
<path d="M48.1504 33.75V20.25" stroke="white" stroke-width="1.5" stroke-linecap="round" stroke-linejoin="round"/>
</svg>
