<svg width="40" height="40" viewBox="0 0 40 40" fill="none" xmlns="http://www.w3.org/2000/svg">
<path d="M14.9997 36.6668H24.9997C33.333 36.6668 36.6663 33.3335 36.6663 25.0002V15.0002C36.6663 6.66683 33.333 3.3335 24.9997 3.3335H14.9997C6.66634 3.3335 3.33301 6.66683 3.33301 15.0002V25.0002C3.33301 33.3335 6.66634 36.6668 14.9997 36.6668Z" stroke="white" stroke-width="2" stroke-linecap="round" stroke-linejoin="round"/>
<path d="M15.167 20V17.5333C15.167 14.35 17.417 13.0667 20.167 14.65L22.3003 15.8833L24.4337 17.1167C27.1837 18.7 27.1837 21.3 24.4337 22.8833L22.3003 24.1167L20.167 25.35C17.417 26.9333 15.167 25.6333 15.167 22.4667V20Z" stroke="white" stroke-width="2" stroke-miterlimit="10" stroke-linecap="round" stroke-linejoin="round"/>
</svg>
